# xmcd CD database file
#
# Track frame offsets:
#	150
#	21705
#	40270
#	67450
#	101637
#	122870
#	145882
#	187815
#	205622
#	226777
#	266995
#	284365
#
# Disc length: 4392 seconds
#
# Revision: 0
# Processed by: cddbd v1.5PL3 Copyright (c) Steve Scherf et al.
# Submitted via: CDex 1.51
#
DISCID=bb11260c
DTITLE=Various Artist - Las Bailaditas 92-96
DYEAR=1900
DGENRE=Salsa
TTITLE0=Sandy and Papo MC - La Hora de Bailar
TTITLE1=Eva Ayllon - Raices Le Dije a Papa
TTITLE2=Marc Anthony and India - Vivir Lo Nuestro
TTITLE3=Fiesta Band - Loco Mix
TTITLE4=Fiesta Band - Chechete, Pechito, y Ombligo
TTITLE5=Mard Antony - Te Conozco Bien
TTITLE6=Charito Alonso - Charito Mix
TTITLE7=Ivonne ylos mercantiles - Sin Parar
TTITLE8=India - Dicen Que Soy
TTITLE9=Fiesta Band - Mix Vallenatos
TTITLE10=Los Hermanos Moreno - Quimbombo
TTITLE11=Sheshira y Fiesta Band - Mix 2
EXTD=
EXTT0=
EXTT1=
EXTT2=
EXTT3=
EXTT4=
EXTT5=
EXTT6=
EXTT7=
EXTT8=
EXTT9=
EXTT10=
EXTT11=
PLAYORDER=
